<mxfile host="app.diagrams.net" agent="Mozilla/5.0 (Windows NT 10.0; Win64; x64) AppleWebKit/537.36 (KHTML, like Gecko) Chrome/128.0.0.0 Safari/537.36" version="24.7.14">
  <diagram name="Page-1" id="Hgw86smpd9LbQuUXS1Yf">
    <mxGraphModel dx="5047" dy="1977" grid="1" gridSize="10" guides="1" tooltips="1" connect="1" arrows="1" fold="1" page="1" pageScale="1" pageWidth="850" pageHeight="1100" math="0" shadow="0">
      <root>
        <mxCell id="0" />
        <mxCell id="1" parent="0" />
        <mxCell id="iWb4p-idVO0Ogn2U3yh9-296" value="" style="shape=image;verticalLabelPosition=bottom;labelBackgroundColor=default;verticalAlign=top;aspect=fixed;imageAspect=0;image=https://cdn.freelogovectors.net/wp-content/uploads/2020/09/kainos-logo.png;textShadow=1;" vertex="1" parent="1">
          <mxGeometry x="-2550" y="-953" width="105.3" height="24.22" as="geometry" />
        </mxCell>
        <mxCell id="iWb4p-idVO0Ogn2U3yh9-297" value="Designed by your Workday Partner" style="text;html=1;align=center;verticalAlign=middle;whiteSpace=wrap;rounded=0;textShadow=1;" vertex="1" parent="1">
          <mxGeometry x="-2560" y="-934.22" width="200" height="30" as="geometry" />
        </mxCell>
        <mxCell id="iWb4p-idVO0Ogn2U3yh9-298" value="&lt;b&gt;&lt;font style=&quot;font-size: 16px;&quot;&gt;Proposed Solution Overview (Workday Perspective)&lt;/font&gt;&lt;/b&gt;" style="text;html=1;align=center;verticalAlign=middle;whiteSpace=wrap;rounded=0;fillColor=#00331A;fontColor=#ffffff;strokeColor=#432D57;textShadow=1;" vertex="1" parent="1">
          <mxGeometry x="-2550" y="-904.22" width="1470" height="54.89" as="geometry" />
        </mxCell>
        <mxCell id="iWb4p-idVO0Ogn2U3yh9-320" value="&lt;div&gt;&lt;font color=&quot;#ffffff&quot;&gt;&lt;br&gt;&lt;/font&gt;&lt;/div&gt;&lt;div&gt;&lt;font color=&quot;#ffffff&quot;&gt;&lt;br&gt;&lt;/font&gt;&lt;/div&gt;&lt;div&gt;&lt;font color=&quot;#ffffff&quot;&gt;&lt;span style=&quot;background-color: initial;&quot;&gt;HCM, EXPENSES,&lt;/span&gt;&lt;/font&gt;&lt;/div&gt;&lt;div&gt;&lt;font color=&quot;#ffffff&quot;&gt;&lt;span style=&quot;background-color: initial;&quot;&gt;FINANCE&lt;/span&gt;&lt;/font&gt;&lt;/div&gt;" style="shape=cylinder3;whiteSpace=wrap;html=1;boundedLbl=1;backgroundOutline=1;size=15;fillColor=#FFB366;strokeColor=#FFFFFF;shadow=1;textShadow=1;" vertex="1" parent="1">
          <mxGeometry x="-1840" y="-589" width="180" height="140" as="geometry" />
        </mxCell>
        <mxCell id="iWb4p-idVO0Ogn2U3yh9-330" style="edgeStyle=orthogonalEdgeStyle;rounded=1;orthogonalLoop=1;jettySize=auto;html=1;entryX=0.546;entryY=0.006;entryDx=0;entryDy=0;entryPerimeter=0;strokeColor=none;curved=0;textShadow=1;" edge="1" parent="1" target="iWb4p-idVO0Ogn2U3yh9-320">
          <mxGeometry relative="1" as="geometry">
            <mxPoint x="-1210" y="-708.5999999999999" as="sourcePoint" />
          </mxGeometry>
        </mxCell>
        <mxCell id="iWb4p-idVO0Ogn2U3yh9-375" style="edgeStyle=orthogonalEdgeStyle;rounded=0;orthogonalLoop=1;jettySize=auto;html=1;entryX=0;entryY=0.5;entryDx=0;entryDy=0;entryPerimeter=0;dashed=1;dashPattern=8 8;textShadow=1;" edge="1" parent="1" source="iWb4p-idVO0Ogn2U3yh9-374">
          <mxGeometry relative="1" as="geometry">
            <Array as="points">
              <mxPoint x="-2510" y="-480" />
              <mxPoint x="-2510" y="-415" />
            </Array>
            <mxPoint x="-2490" y="-415" as="targetPoint" />
          </mxGeometry>
        </mxCell>
        <mxCell id="iWb4p-idVO0Ogn2U3yh9-377" style="edgeStyle=orthogonalEdgeStyle;rounded=0;orthogonalLoop=1;jettySize=auto;html=1;entryX=0;entryY=0.5;entryDx=0;entryDy=0;entryPerimeter=0;dashed=1;dashPattern=8 8;textShadow=1;" edge="1" parent="1" source="iWb4p-idVO0Ogn2U3yh9-374">
          <mxGeometry relative="1" as="geometry">
            <mxPoint x="-2457.45" y="-475" as="sourcePoint" />
            <mxPoint x="-2434.7" y="-305" as="targetPoint" />
            <Array as="points">
              <mxPoint x="-2510" y="-480" />
              <mxPoint x="-2510" y="-305" />
            </Array>
          </mxGeometry>
        </mxCell>
        <mxCell id="iWb4p-idVO0Ogn2U3yh9-378" style="edgeStyle=orthogonalEdgeStyle;rounded=0;orthogonalLoop=1;jettySize=auto;html=1;entryX=0;entryY=0;entryDx=0;entryDy=45;entryPerimeter=0;exitX=0.075;exitY=1.05;exitDx=0;exitDy=0;exitPerimeter=0;dashed=1;dashPattern=8 8;strokeWidth=1;textShadow=1;" edge="1" parent="1" source="iWb4p-idVO0Ogn2U3yh9-374">
          <mxGeometry relative="1" as="geometry">
            <mxPoint x="-2457" y="-470" as="sourcePoint" />
            <mxPoint x="-2394.7" y="-245" as="targetPoint" />
            <Array as="points">
              <mxPoint x="-2510" y="-478" />
              <mxPoint x="-2510" y="-245" />
            </Array>
          </mxGeometry>
        </mxCell>
        <mxCell id="iWb4p-idVO0Ogn2U3yh9-406" value="" style="shape=image;verticalLabelPosition=bottom;labelBackgroundColor=default;verticalAlign=top;aspect=fixed;imageAspect=0;image=https://cdn.freebiesupply.com/logos/large/2x/hellofresh-logo.png;" vertex="1" parent="1">
          <mxGeometry x="-1970" y="-965.89" width="153.84" height="50" as="geometry" />
        </mxCell>
        <mxCell id="iWb4p-idVO0Ogn2U3yh9-409" value="" style="shape=image;verticalLabelPosition=bottom;labelBackgroundColor=default;verticalAlign=top;aspect=fixed;imageAspect=0;image=https://www.logo.wine/a/logo/Workday%2C_Inc./Workday%2C_Inc.-Logo.wine.svg;" vertex="1" parent="1">
          <mxGeometry x="-1795" y="-555" width="90" height="60" as="geometry" />
        </mxCell>
      </root>
    </mxGraphModel>
  </diagram>
</mxfile>
